<svg width="40" height="40" viewBox="0 0 40 40" fill="none" xmlns="http://www.w3.org/2000/svg">
  <defs>
    <linearGradient id="sbGrad" x1="0" y1="0" x2="40" y2="40" gradientUnits="userSpaceOnUse">
      <stop stop-color="#f59e0b"/>
      <stop offset="1" stop-color="#ea580c"/>
    </linearGradient>
  </defs>
  <rect width="40" height="40" rx="11" fill="url(#sbGrad)"/>
  <path d="M12 9.5C12 8.67 12.67 8 13.5 8H26.5C27.33 8 28 8.67 28 9.5V30.5C28 30.82 27.65 31.03 27.36 30.88L25 29.6L22.64 30.88C22.42 31 22.15 31 21.93 30.88L19.57 29.6L17.21 30.88C16.99 31 16.72 31 16.5 30.88L14.14 29.6L12.64 30.88C12.35 31.03 12 30.82 12 30.5V9.5Z" fill="white"/>
  <rect x="15.5" y="12.5" width="9" height="2" rx="1" fill="#f59e0b"/>
  <rect x="15.5" y="17" width="9" height="2" rx="1" fill="#fb923c"/>
  <rect x="15.5" y="21.5" width="6" height="2" rx="1" fill="#fdba74"/>
  <circle cx="25.5" cy="25.5" r="4.5" fill="#ea580c" stroke="white" stroke-width="1.5"/>
  <path d="M23.5 25.5L25 27L27.5 24.2" stroke="white" stroke-width="1.4" stroke-linecap="round" stroke-linejoin="round"/>
</svg>
